<svg version="1.1" id="Layer_1" xmlns="http://www.w3.org/2000/svg" xmlns:xlink="http://www.w3.org/1999/xlink" x="0px" y="0px" width="100%" viewBox="0 0 1134 1134" enable-background="new 0 0 1134 1134" xml:space="preserve">
  <path fill="#000000" stroke="none" d="
M499.774048,814.265869 
	C543.665222,778.865051 582.160706,738.135254 617.522400,694.384949 
	C676.773682,621.078064 726.389038,541.455017 771.216797,458.725098 
	C775.845276,450.183289 780.460815,441.634491 785.082336,433.088928 
	C785.924377,435.059692 785.908875,436.778687 785.581299,438.436005 
	C784.098572,445.937927 782.500671,453.416962 780.992859,460.914032 
	C768.662720,522.218628 756.398132,583.536499 743.989929,644.825317 
	C739.947876,664.790344 722.970520,681.390503 702.781128,683.832031 
	C690.445923,685.323792 677.859192,684.818481 665.382324,685.014465 
	C660.505676,685.091125 656.843445,686.775085 655.386169,691.557556 
	C654.000427,696.105408 655.890503,699.571533 659.698608,702.274658 
	C683.296997,719.025940 699.605591,741.511414 711.019836,767.810303 
	C723.433594,796.412292 728.568665,826.621582 730.911133,857.471863 
	C732.201050,874.459412 749.127625,886.599854 765.570251,882.171387 
	C787.554382,876.250549 800.568237,852.132141 799.618774,829.660034 
	C799.170044,819.039124 797.399231,808.472473 796.188782,797.885681 
	C793.231445,772.019653 803.624451,755.265686 828.012695,745.888367 
	C835.274353,743.096313 842.394653,739.774048 849.218933,736.036133 
	C874.473816,722.203003 893.877808,702.725037 905.633972,676.131287 
	C907.593201,671.699463 906.479614,667.582703 902.704224,666.660950 
	C900.512634,666.125916 897.811462,666.771912 895.558472,667.533691 
	C871.057007,675.818726 846.229187,682.503052 820.189392,683.473938 
	C806.543945,683.982727 800.290100,677.369446 802.119446,663.860291 
	C804.777100,644.234314 807.777222,624.654907 810.587769,605.049377 
	C815.733826,569.151733 820.841858,533.248596 825.977295,497.349426 
	C830.852356,463.270172 835.750854,429.194275 840.617737,395.113861 
	C841.535156,388.689423 842.502563,382.266632 843.187866,375.815582 
	C844.962097,359.114716 833.005493,345.293152 816.253235,344.726990 
	C797.021912,344.077026 779.076782,349.507385 761.692993,356.997620 
	C740.023315,366.334595 722.736023,380.516113 710.765320,401.400513 
	C698.389038,422.992462 685.659058,444.481842 671.561401,464.968414 
	C626.791260,530.027954 575.718506,589.827393 518.312561,644.111877 
	C484.987305,675.625122 449.691254,704.706909 410.159271,728.256287 
	C377.791687,747.537842 343.983490,763.052002 305.776947,766.420349 
	C278.898834,768.789917 253.810303,763.424011 231.011978,748.674805 
	C210.852753,735.632935 196.001068,717.644714 183.911011,697.214111 
	C179.635330,689.988831 175.811081,682.496460 171.609695,674.813171 
	C171.293076,675.557068 171.087509,675.934998 170.966919,676.338318 
	C163.422714,701.568176 158.105331,727.272827 155.309799,753.444885 
	C152.342438,781.225403 151.871323,808.979309 159.019897,836.319580 
	C164.827927,858.532837 175.345306,877.696411 195.070084,890.750916 
	C211.192825,901.421387 229.565674,904.233887 248.209625,905.910828 
	C292.277496,909.874695 334.744873,902.683105 376.000885,887.239868 
	C421.321655,870.275208 461.648041,844.838318 499.774048,814.265869 
z"/>

  <path fill="#000000" stroke="none" d="
M846.008057,258.497101 
	C867.883240,228.333939 864.720703,190.318893 838.205078,164.702606 
	C816.900330,144.120361 782.737000,139.926849 756.289124,154.647598 
	C729.717468,169.437271 715.165039,200.493866 721.691406,229.516739 
	C728.151367,258.244446 745.704529,277.135620 774.388245,283.903778 
	C802.905396,290.632629 826.784485,281.513275 846.008057,258.497101 
z"/>
</svg>
